<svg xmlns="http://www.w3.org/2000/svg" aria-hidden="true" style="position:absolute;width:0;height:0;overflow:hidden"><defs><symbol id="icon-antenna-1" viewBox="0 0 32 32"><path d="m30.78 22.103-8.445-8.507.937-4.616c.242.094.499.144.758.146h.032a2.16 2.16 0 1 0-2.03-1.421l-.005-.015-4.961.605L8.973.16A.53.53 0 0 0 8.596 0a.533.533 0 0 0-.373.155L6.71 1.659a.535.535 0 0 0 0 .754l.814.826C6.381 5.302 5.708 7.762 5.708 10.38a14.9 14.9 0 0 0 4.337 10.528l-.001-.001c.041.04.09.073.143.097l.003.001c-.034.18-.051.364-.052.547v6.189H3.736a2.671 2.671 0 0 0-2.668 2.668v1.067c0 .295.239.533.533.533H26.14a.533.533 0 0 0 .533-.533v-1.067a2.671 2.671 0 0 0-2.668-2.668h-6.402v-2.743c.916.201 1.968.317 3.047.32h.002a14.794 14.794 0 0 0 7.119-1.822l-.077.039.818.823a.53.53 0 0 0 .377.16.533.533 0 0 0 .373-.155l1.513-1.504a.535.535 0 0 0 0-.754zM23.286 6.235a1.067 1.067 0 1 1 .754 1.822h-.004a1.067 1.067 0 0 1-.747-1.823h-.002zM22.029 9.74l-.598 2.947-1.175-1.182 1.774-1.763zm-.605-.902-1.92 1.909-1.485-1.493 3.406-.415zm2.586 19.969a1.6 1.6 0 0 1 1.6 1.6v.533H2.137v-.533a1.6 1.6 0 0 1 1.6-1.6h20.272zm-7.469-2.133v1.067h-5.334v-1.067h5.334zm-5.334-1.068v-4.054c0-1.294 1.196-2.348 2.668-2.348s2.668 1.053 2.668 2.348v4.054h-5.334zm6.401-1.696v-2.358c0-1.882-1.675-3.414-3.734-3.414h-.058a3.798 3.798 0 0 0-3.214 1.771l-.009.016a13.822 13.822 0 0 1-3.812-9.552c0-2.315.567-4.497 1.569-6.415l-.036.077 18.607 18.713c-1.823.947-3.98 1.503-6.267 1.503-1.079 0-2.129-.124-3.137-.358l.093.018zm11.292-.684L7.838 2.04l.755-.752L16.53 9.27c.004 0 .006.007.01.01l13.118 13.194-.757.752z"/><path d="M13.879 20.272h-.007a1.6 1.6 0 0 0-.002 3.2h.007a1.6 1.6 0 0 0 .002-3.2zm.373 1.978a.534.534 0 0 1-.752-.756.533.533 0 0 1 .373-.155.534.534 0 0 1 .374.911h.005z"/></symbol><symbol id="icon-astronaut-1" viewBox="0 0 32 32"><path d="M31.982 4.525a.538.538 0 0 0-.427-.363h-.003l-1.91-.278-.855-1.731c-.179-.365-.777-.365-.956 0l-.855 1.731-1.91.278a.537.537 0 0 0-.297.91l1.383 1.348-.326 1.903a.536.536 0 0 0 .525.624.524.524 0 0 0 .252-.064l-.003.001 1.709-.899 1.709.899a.536.536 0 0 0 .774-.566v.003l-.326-1.903 1.383-1.348a.535.535 0 0 0 .134-.551l.001.004zm-2.464 1.327a.533.533 0 0 0-.153.475v-.003l.191 1.114-1-.526a.525.525 0 0 0-.501.001l.003-.001-1.001.526.191-1.114a.53.53 0 0 0-.153-.472l-.81-.789 1.119-.163a.533.533 0 0 0 .401-.289l.001-.003.5-1.013.5 1.013a.54.54 0 0 0 .399.292h.003l1.119.163-.809.789zm-3.379 14.675h-1.067v1.067h1.067v-1.067zm0 2.135h-1.067v1.067h1.067v-1.067zm1.068-1.068H26.14v1.067h1.067v-1.067zm-2.134 0h-1.067v1.067h1.067v-1.067zm-2.668 4.801h-1.067v1.067h1.067v-1.067zm0 2.134h-1.067v1.067h1.067v-1.067zm1.068-1.066h-1.067v1.067h1.067v-1.067zm-2.135 0h-1.067v1.067h1.067v-1.067zm-5.334-3.201h-1.067v1.067h1.067v-1.067zm0 2.133h-1.067v1.067h1.067v-1.067zm1.067-1.067h-1.067v1.067h1.067v-1.067zm-2.134 0H13.87v1.067h1.067v-1.067zM5.868 6.123H4.801V7.19h1.067V6.123zm0 2.134H4.801v1.067h1.067V8.257zM6.935 7.191H5.868v1.067h1.067V7.191zm-2.134 0H3.734v1.067h1.067V7.191z"/><path d="M24.721 14.162a1.778 1.778 0 0 0-1.179-.704l-.009-.001a1.769 1.769 0 0 0-1.344.355l.004-.003-1.252.96-1.898 1.417-1.358-.541c2.422-1.086 4.115-3.509 4.115-6.322 0-3.824-3.124-6.935-6.963-6.935S7.874 5.499 7.874 9.323v.001c0 1.398.418 2.698 1.136 3.783l-.016-.025-2.77-.024c-.009 0-.015.004-.023.005a.523.523 0 0 0-.159.032l.004-.001-.038.013c-.006.003-.013.003-.019.006L2.754 14.71l-1.893.911a.429.429 0 0 0-.064.036l.001-.001a1.78 1.78 0 0 0-.594 2.305l-.005-.01c.22.429.595.745 1.056.889a1.768 1.768 0 0 0 1.388-.133l-.009.005 1.388-.738 2.265-1.169 1.357-.008-6.785 6.752c-.316.315-.49.732-.49 1.178s.174.863.49 1.179c.325.323.752.485 1.179.485s.854-.162 1.18-.485l1.314-1.309 1.741-1.3.901.897-3.104 3.089c-.316.315-.49.732-.49 1.178s.174.863.49 1.179c.325.323.753.485 1.18.485s.855-.162 1.18-.485l3.484-3.47 1.01-1-.004-.004c.006-.006.015-.009.022-.015l5.167-5.659 3.472.494a.513.513 0 0 0 .265-.034l-.003.001c.018-.006.033-.015.05-.023.019-.01.039-.015.058-.027l3.214-2.134c.012-.008.018-.021.029-.029.013-.01.029-.014.041-.026l1.271-1.191a1.78 1.78 0 0 0 .212-2.363zm-22.59 3.612a.706.706 0 0 1-.563.05l.005.001a.719.719 0 0 1-.215-1.259l.002-.001 1.314-.632.449 1.313-.992.527zm3.498-1.828-1.548.8-.439-1.283 2.028-1.001-.04 1.484zm15.103-6.622a5.773 5.773 0 0 1-.614 2.593l.015-.033-4.182-1.899a1.866 1.866 0 0 0-.782-1.384l-.006-.004 1.464-4.861c2.379.756 4.106 2.975 4.106 5.589zm-11.792 0c0-3.236 2.645-5.868 5.895-5.868.253 0 .5.021.745.052l-1.432 4.755c-.019-.001-.037-.006-.057-.006-1.033 0-1.873.837-1.873 1.867s.84 1.867 1.873 1.867c.694 0 1.294-.383 1.618-.945l3.863 1.755a5.896 5.896 0 0 1-4.738 2.391c-3.251 0-5.895-2.633-5.895-5.868zm5.958.8c0 .441-.362.8-.806.8s-.806-.359-.806-.8c0-.441.362-.8.806-.8s.806.359.806.8zM2.466 25.152a.606.606 0 0 1-.855.001.592.592 0 0 1 0-.844l.962-.958.851.848-.959.955zm3.214 3.735a.606.606 0 0 1-.855.001.592.592 0 0 1 0-.844l.963-.959.852.848-.96.955zm3.482-3.47-.002.001-1.765 1.76-.852-.848 1.765-1.756c.04-.04.065-.088.09-.135.007-.014.02-.026.026-.04.017-.041.019-.085.026-.129.003-.025.014-.047.014-.073 0-.036-.013-.07-.02-.106-.006-.032-.006-.065-.019-.095a.586.586 0 0 0-.091-.139c-.01-.012-.014-.027-.025-.038h-.001l-.001-.002-1.607-1.6c-.017-.017-.039-.024-.058-.038a.563.563 0 0 0-.084-.057l-.003-.001a.444.444 0 0 0-.089-.032l-.004-.001a.502.502 0 0 0-.101-.02h-.023a.468.468 0 0 0-.076.006h.003a.59.59 0 0 0-.108.021l.004-.001a.502.502 0 0 0-.096.046l.002-.001c-.02.011-.042.015-.061.029l-1.773 1.324-.901-.897 2.4-2.387 4.362 4.29-.928.919zm6.821-7.019c-.015-.002-.03.004-.045.003h-.02a.552.552 0 0 0-.282.077l.003-.001a.481.481 0 0 0-.083.061c-.013.011-.028.017-.04.029l-4.699 5.147-4.329-4.258 2.834-2.819a.535.535 0 0 0-.378-.911h-.001v-.001l-2.22.013.028-1.607 3.105.027a6.929 6.929 0 0 0 4.979 2.101h.004c.437 0 .864-.045 1.279-.123.04.032.079.065.13.085l2.411.96.152.758.178.885-3.004-.427zm4.042.179-.313-1.558 1.446-1.08.947 1.257-2.081 1.381zm3.755-2.832-.838.785-.931-1.236.831-.637a.734.734 0 0 1 .547-.143h-.004a.72.72 0 0 1 .479.282l.001.002a.71.71 0 0 1-.085.947z"/><path d="m13.605 18.549-2.144-2.134a.534.534 0 0 0-.754 0l-2.143 2.134a.537.537 0 0 0 0 .756l2.143 2.134a.534.534 0 0 0 .754 0l2.144-2.134a.535.535 0 0 0 0-.756zm-2.519 1.759-1.387-1.381 1.387-1.381 1.387 1.381-1.387 1.381zm6.082-15.236-.258 1.036c.071.018 1.738.452 1.738 2.15h1.067c0-2.018-1.666-2.966-2.548-3.186zm2.548 4.252h-1.067v1.067h1.067V9.324z"/></symbol><symbol id="icon-clock-1" viewBox="0 0 32 32"><path d="M31.305 15.305C31.303 6.851 24.448-.002 15.993 0S.686 6.857.688 15.312c.001 6.79 4.423 12.546 10.543 14.549l.108.031a.657.657 0 0 0 .532-.067l-.003.002a.64.64 0 0 0 .282-.352l.001-.005 3.866-12.253a1.912 1.912 0 1 0-.851-3.63l.011-.005-5.107-5.108a.637.637 0 1 0-.902.902l5.104 5.11a1.875 1.875 0 0 0 .531 2.307l.004.003-3.684 11.676C3.843 25.79.116 17.715 2.798 10.436S13.555-.571 20.834 2.111c7.28 2.682 11.007 10.757 8.325 18.036-1.345 3.582-4.004 6.407-7.376 7.939l-.088.036-.398-1.874a.638.638 0 0 0-1.05-.344h.001l-3.838 3.427a.637.637 0 0 0 .227 1.083l.005.001 4.9 1.564a.638.638 0 0 0 .818-.744l.001.004-.391-1.839c5.529-2.375 9.331-7.774 9.331-14.06v-.034.002zm-15.309-.637a.639.639 0 1 1 0 1.278.639.639 0 1 1 0-1.278zm2.101 14.867 2.185-1.948.603 2.841-2.788-.892z"/><path d="M15.358 3.186v1.275a.638.638 0 0 0 1.276 0V3.186a.638.638 0 0 0-1.276 0zM3.877 14.668a.638.638 0 0 0 0 1.276h1.275a.638.638 0 0 0 0-1.276H3.877zm24.238 1.275a.638.638 0 0 0 0-1.276H26.84a.638.638 0 0 0 0 1.276h1.275z"/></symbol><symbol id="icon-diagram-1" viewBox="0 0 32 32"><path d="M14.929 14.969h1.066v4.799h-1.066V14.97zm4.266 2.132h1.066v2.666h-1.066v-2.666zm-8.531 1.6h1.066v1.066h-1.066v-1.066zm-3.199-.534h1.066v1.599H7.465v-1.599z"/><path d="M1.599 28.298h25.593a1.6 1.6 0 0 0 1.599-1.599v-2.133a1.6 1.6 0 0 0-1.599-1.599h-.533V9.671l3.029-2.869a1.608 1.608 0 1 0-.741-.753l-.004-.01-2.282 2.164v-1.23a1.6 1.6 0 0 0-1.599-1.599H3.735a1.6 1.6 0 0 0-1.599 1.599v15.996h-.533a1.6 1.6 0 0 0-1.599 1.599v2.133A1.6 1.6 0 0 0 1.603 28.3zm28.792-23.46a.534.534 0 1 1 0 1.068.534.534 0 1 1 0-1.068zM3.199 6.971c0-.294.239-.533.533-.533h21.327c.294 0 .533.239.533.533v2.24l-1.066 1.013V8.037a.533.533 0 0 0-.533-.533H4.798a.533.533 0 0 0-.533.533v13.329c0 .294.239.533.533.533h19.195a.533.533 0 0 0 .533-.533V11.69l1.066-1.01v12.287H3.199V6.971zm4.799 6.931h-.002a1.598 1.598 0 1 0 1.109 2.748h-.001l1.853.93a.528.528 0 0 0 .636-.123v-.001l3.94-4.432 3.873 2.902a.527.527 0 0 0 .686-.039l3.366-3.189v8.133H5.33V8.568h18.128v2.661l-3.772 3.573-3.905-2.928a.534.534 0 0 0-.718.071v.001l-3.994 4.494-1.493-.746c.011-.064.018-.129.02-.193a1.6 1.6 0 0 0-1.599-1.599zm.533 1.6a.534.534 0 1 1-1.068 0 .534.534 0 1 1 1.068 0zm3.199 8.531h5.332v.533a.533.533 0 0 1-.533.533h-4.265a.533.533 0 0 1-.533-.533v-.533zm-10.664.533c0-.294.239-.533.533-.533h9.064v.533a1.6 1.6 0 0 0 1.599 1.599h4.265a1.6 1.6 0 0 0 1.599-1.599v-.533h9.064c.294 0 .533.239.533.533v2.133a.533.533 0 0 1-.533.533H1.597a.533.533 0 0 1-.533-.533v-2.133z"/></symbol><symbol id="icon-facebook-1" viewBox="0 0 32 32"><path d="M21.334 5.314h2.922V.225C23.752.156 22.018 0 19.999 0 15.786 0 12.9 2.65 12.9 7.521v4.482H8.251v5.689H12.9v14.316h5.7V17.693h4.461l.708-5.689h-5.17v-3.92c.001-1.644.444-2.77 2.736-2.77z"/></symbol><symbol id="icon-instagram-2" viewBox="0 0 32 32"><path d="M31.977 9.41c-.075-1.7-.35-2.87-.744-3.883a7.83 7.83 0 0 0-1.85-2.837l-.001-.001A7.884 7.884 0 0 0 26.603.863l-.054-.018C25.53.451 24.367.176 22.666.101c-1.713-.081-2.258-.1-6.603-.1S11.174.02 9.466.095c-1.7.075-2.87.35-3.883.744a7.84 7.84 0 0 0-2.837 1.849l-.001.001A7.893 7.893 0 0 0 .919 5.468l-.018.054C.507 6.541.232 7.705.157 9.405c-.081 1.713-.1 2.258-.1 6.603s.019 4.889.094 6.597c.075 1.7.35 2.87.744 3.883a7.945 7.945 0 0 0 1.849 2.838l.001.001a7.884 7.884 0 0 0 2.779 1.826l.054.018c1.019.394 2.183.669 3.883.744 1.706.075 2.251.094 6.597.094s4.889-.019 6.597-.094c1.7-.075 2.87-.35 3.883-.744a8.234 8.234 0 0 0 4.664-4.628l.019-.055c.394-1.019.669-2.183.744-3.883.075-1.707.094-2.252.094-6.597s-.006-4.889-.081-6.597zm-2.883 13.069c-.069 1.563-.331 2.408-.55 2.97a5.343 5.343 0 0 1-3.003 3.026l-.036.013c-.563.219-1.413.481-2.97.55-1.688.075-2.195.094-6.466.094s-4.783-.019-6.466-.094c-1.563-.069-2.408-.331-2.97-.55a4.947 4.947 0 0 1-1.837-1.193l-.001-.001a4.988 4.988 0 0 1-1.183-1.804l-.011-.034c-.219-.563-.481-1.413-.55-2.97-.075-1.688-.094-2.195-.094-6.466s.019-4.783.094-6.466c.069-1.563.331-2.408.55-2.97A4.887 4.887 0 0 1 4.8 4.747l.002-.002a4.988 4.988 0 0 1 1.804-1.183l.034-.011c.563-.219 1.413-.481 2.97-.55 1.688-.075 2.195-.094 6.466-.094 4.277 0 4.783.019 6.466.094 1.563.069 2.408.331 2.97.55a4.939 4.939 0 0 1 1.837 1.193l.001.001a4.975 4.975 0 0 1 1.183 1.804l.011.034c.219.563.481 1.413.55 2.97.075 1.688.094 2.195.094 6.466s-.019 4.771-.094 6.46z"/><path d="M16.063 7.785c-4.539 0-8.222 3.683-8.222 8.222s3.683 8.222 8.222 8.222c4.54 0 8.222-3.683 8.222-8.222s-3.683-8.222-8.222-8.222zm0 13.555a5.335 5.335 0 0 1-.005-10.666h.005a5.333 5.333 0 0 1 0 10.666zM26.53 7.46a1.919 1.919 0 1 1-3.838 0 1.919 1.919 0 1 1 3.838 0z"/></symbol><symbol id="icon-linkedin-1" viewBox="0 0 32 32"><path d="M32 32.008v-.001h.008V20.268c0-5.742-1.236-10.166-7.95-10.166-3.228 0-5.393 1.771-6.278 3.45h-.093v-2.914h-6.366v21.369h6.629V21.425c0-2.786.528-5.48 3.978-5.48 3.4 0 3.45 3.18 3.45 5.658v10.404H32zM.528 10.639h6.637v21.369H.528V10.639zM3.844 0C1.722 0 0 1.721 0 3.844s1.721 3.88 3.844 3.88c2.122 0 3.844-1.757 3.844-3.88A3.848 3.848 0 0 0 3.844 0z"/></symbol><symbol id="icon-twitter-1" viewBox="0 0 32 32"><path d="M32.008 6.079c-1.19.522-2.459.868-3.781 1.036a6.563 6.563 0 0 0 2.874-3.581l.013-.046a12.873 12.873 0 0 1-4.077 1.574l-.084.014A6.556 6.556 0 0 0 22.16 3c-3.633 0-6.558 2.949-6.558 6.564 0 .52.044 1.02.152 1.496-5.455-.266-10.283-2.881-13.525-6.864a6.567 6.567 0 0 0 1.994 8.755l.023.015a6.448 6.448 0 0 1-2.997-.825l.033.017v.072c0 3.189 2.275 5.837 5.257 6.448a6.414 6.414 0 0 1-1.669.216h-.054.003a5.852 5.852 0 0 1-1.28-.118l.038.006c.85 2.599 3.263 4.509 6.131 4.571a13.1 13.1 0 0 1-8.122 2.799h-.015.001c-.538 0-1.054-.024-1.57-.09 2.827 1.846 6.289 2.945 10.007 2.945h.063-.003c12.075 0 18.677-10.002 18.677-18.673 0-.29-.01-.57-.024-.848a13.21 13.21 0 0 0 3.259-3.36l.03-.047z"/></symbol></defs></svg>